{
    "asset" : {
        "generator" : "Khronos glTF Blender I/O v3.4.50",
        "version" : "2.0"
    },
    "scene" : 0,
    "scenes" : [
        {
            "name" : "Scene",
            "nodes" : [
                5,
                6,
                7,
                8,
                9,
                10
            ]
        }
    ],
    "nodes" : [
        {
            "mesh" : 0,
            "name" : "Object_3"
        },
        {
            "mesh" : 1,
            "name" : "Object_4"
        },
        {
            "mesh" : 2,
            "name" : "Object_5"
        },
        {
            "children" : [
                0,
                1,
                2
            ],
            "name" : "Object_2"
        },
        {
            "children" : [
                3
            ],
            "name" : "Shirt on Hanger.obj.cleaner.materialmerger.gles",
            "translation" : [
                -0.2919999659061432,
                -0.05809999629855156,
                -0.630299985408783
            ]
        },
        {
            "children" : [
                4
            ],
            "name" : "Sketchfab_model",
            "rotation" : [
                -0.70710688829422,
                0,
                0,
                0.7071066498756409
            ],
            "scale" : [
                16.38749885559082,
                16.38749885559082,
                16.38749885559082
            ],
            "translation" : [
                0,
                12.43456745147705,
                0
            ]
        },
        {
            "mesh" : 3,
            "name" : "3-but-better",
            "scale" : [
                0.8678957223892212,
                0.8678957223892212,
                0.8678957223892212
            ],
            "translation" : [
                2.6104445457458496,
                3.3301949501037598,
                0.9943006634712219
            ]
        },
        {
            "mesh" : 4,
            "name" : "1",
            "translation" : [
                0.0929851159453392,
                9.269232749938965,
                0.8570573329925537
            ]
        },
        {
            "mesh" : 5,
            "name" : "4",
            "rotation" : [
                0,
                0,
                -0.13227908313274384,
                0.9912124872207642
            ],
            "scale" : [
                0.8482170104980469,
                0.8482170104980469,
                0.8482170104980469
            ],
            "translation" : [
                4.4966654777526855,
                8.487690925598145,
                -1.3291523456573486
            ]
        },
        {
            "mesh" : 6,
            "name" : "5-but-better",
            "translation" : [
                -0.02375936508178711,
                12.079736709594727,
                -1.198289394378662
            ]
        },
        {
            "mesh" : 7,
            "name" : "6",
            "translation" : [
                0,
                8.871991157531738,
                -1.7361798286437988
            ]
        }
    ],
    "materials" : [
        {
            "doubleSided" : true,
            "name" : "03___Default",
            "pbrMetallicRoughness" : {
                "baseColorFactor" : [
                    0.9386849999427795,
                    0.8307690024375916,
                    0.708375871181488,
                    1
                ],
                "metallicFactor" : 0,
                "roughnessFactor" : 0.6000000238418579
            }
        },
        {
            "doubleSided" : true,
            "name" : "04___Default",
            "pbrMetallicRoughness" : {
                "baseColorFactor" : [
                    0.025393711403012276,
                    0.025393711403012276,
                    0.025393711403012276,
                    1
                ],
                "metallicFactor" : 0,
                "roughnessFactor" : 0.6000000238418579
            }
        },
        {
            "alphaMode" : "BLEND",
            "doubleSided" : true,
            "name" : "3-but-better",
            "pbrMetallicRoughness" : {
                "baseColorTexture" : {
                    "index" : 0
                },
                "metallicFactor" : 0,
                "roughnessFactor" : 0.5
            }
        },
        {
            "alphaMode" : "BLEND",
            "doubleSided" : true,
            "name" : "1",
            "pbrMetallicRoughness" : {
                "baseColorTexture" : {
                    "index" : 1
                },
                "metallicFactor" : 0,
                "roughnessFactor" : 0.5
            }
        },
        {
            "alphaMode" : "BLEND",
            "doubleSided" : true,
            "name" : "4",
            "pbrMetallicRoughness" : {
                "baseColorTexture" : {
                    "index" : 2
                },
                "metallicFactor" : 0,
                "roughnessFactor" : 0.5
            }
        },
        {
            "alphaMode" : "BLEND",
            "doubleSided" : true,
            "name" : "5-but-better",
            "pbrMetallicRoughness" : {
                "baseColorTexture" : {
                    "index" : 3
                },
                "metallicFactor" : 0,
                "roughnessFactor" : 0.5
            }
        },
        {
            "alphaMode" : "BLEND",
            "doubleSided" : true,
            "name" : "6",
            "pbrMetallicRoughness" : {
                "baseColorTexture" : {
                    "index" : 4
                },
                "metallicFactor" : 0,
                "roughnessFactor" : 0.5
            }
        }
    ],
    "meshes" : [
        {
            "name" : "Object_0",
            "primitives" : [
                {
                    "attributes" : {
                        "POSITION" : 0,
                        "TEXCOORD_0" : 1,
                        "NORMAL" : 2
                    },
                    "indices" : 3,
                    "material" : 0
                }
            ]
        },
        {
            "name" : "Object_1",
            "primitives" : [
                {
                    "attributes" : {
                        "POSITION" : 4,
                        "NORMAL" : 5
                    },
                    "indices" : 6,
                    "material" : 1
                }
            ]
        },
        {
            "name" : "Object_2",
            "primitives" : [
                {
                    "attributes" : {
                        "POSITION" : 7,
                        "NORMAL" : 8
                    },
                    "indices" : 9,
                    "material" : 1
                }
            ]
        },
        {
            "name" : "3-but-better",
            "primitives" : [
                {
                    "attributes" : {
                        "POSITION" : 10,
                        "TEXCOORD_0" : 11,
                        "NORMAL" : 12
                    },
                    "indices" : 13,
                    "material" : 2
                }
            ]
        },
        {
            "name" : "1",
            "primitives" : [
                {
                    "attributes" : {
                        "POSITION" : 14,
                        "TEXCOORD_0" : 15,
                        "NORMAL" : 16
                    },
                    "indices" : 17,
                    "material" : 3
                }
            ]
        },
        {
            "name" : "4",
            "primitives" : [
                {
                    "attributes" : {
                        "POSITION" : 18,
                        "TEXCOORD_0" : 19,
                        "NORMAL" : 20
                    },
                    "indices" : 21,
                    "material" : 4
                }
            ]
        },
        {
            "name" : "5-but-better",
            "primitives" : [
                {
                    "attributes" : {
                        "POSITION" : 22,
                        "TEXCOORD_0" : 23,
                        "NORMAL" : 24
                    },
                    "indices" : 25,
                    "material" : 5
                }
            ]
        },
        {
            "name" : "6",
            "primitives" : [
                {
                    "attributes" : {
                        "POSITION" : 26,
                        "TEXCOORD_0" : 27,
                        "NORMAL" : 28
                    },
                    "indices" : 29,
                    "material" : 6
                }
            ]
        }
    ],
    "textures" : [
        {
            "sampler" : 0,
            "source" : 0
        },
        {
            "sampler" : 0,
            "source" : 1
        },
        {
            "sampler" : 0,
            "source" : 2
        },
        {
            "sampler" : 0,
            "source" : 3
        },
        {
            "sampler" : 0,
            "source" : 4
        }
    ],
    "images" : [
        {
            "mimeType" : "image/png",
            "name" : "3-but-better",
            "uri" : "3-but-better.png"
        },
        {
            "mimeType" : "image/png",
            "name" : "1",
            "uri" : "1.png"
        },
        {
            "mimeType" : "image/png",
            "name" : "4",
            "uri" : "4.png"
        },
        {
            "mimeType" : "image/png",
            "name" : "5-but-better",
            "uri" : "5-but-better.png"
        },
        {
            "mimeType" : "image/png",
            "name" : "6",
            "uri" : "6.png"
        }
    ],
    "accessors" : [
        {
            "bufferView" : 0,
            "componentType" : 5126,
            "count" : 2426,
            "max" : [
                0.5932999849319458,
                0.1462000012397766,
                0.6492999792098999
            ],
            "min" : [
                0,
                0,
                0
            ],
            "type" : "VEC3"
        },
        {
            "bufferView" : 1,
            "componentType" : 5126,
            "count" : 2426,
            "type" : "VEC2"
        },
        {
            "bufferView" : 2,
            "componentType" : 5126,
            "count" : 2426,
            "type" : "VEC3"
        },
        {
            "bufferView" : 3,
            "componentType" : 5123,
            "count" : 13038,
            "type" : "SCALAR"
        },
        {
            "bufferView" : 4,
            "componentType" : 5126,
            "count" : 508,
            "max" : [
                0.5012999773025513,
                0.10260000079870224,
                0.6513000130653381
            ],
            "min" : [
                0.08219999074935913,
                0.02879999950528145,
                0.5144000053405762
            ],
            "type" : "VEC3"
        },
        {
            "bufferView" : 5,
            "componentType" : 5126,
            "count" : 508,
            "type" : "VEC3"
        },
        {
            "bufferView" : 6,
            "componentType" : 5123,
            "count" : 2046,
            "type" : "SCALAR"
        },
        {
            "bufferView" : 7,
            "componentType" : 5126,
            "count" : 2352,
            "max" : [
                0.5019999742507935,
                0.10260000079870224,
                0.7723000049591064
            ],
            "min" : [
                0.08149999380111694,
                0.02810000069439411,
                0.5144000053405762
            ],
            "type" : "VEC3"
        },
        {
            "bufferView" : 8,
            "componentType" : 5126,
            "count" : 2352,
            "type" : "VEC3"
        },
        {
            "bufferView" : 9,
            "componentType" : 5123,
            "count" : 13266,
            "type" : "SCALAR"
        },
        {
            "bufferView" : 10,
            "componentType" : 5126,
            "count" : 861,
            "max" : [
                0.4999990463256836,
                0.5000001192092896,
                -0.25415366888046265
            ],
            "min" : [
                -0.5,
                -0.5000001192092896,
                -0.7157180905342102
            ],
            "type" : "VEC3"
        },
        {
            "bufferView" : 11,
            "componentType" : 5126,
            "count" : 861,
            "type" : "VEC2"
        },
        {
            "bufferView" : 12,
            "componentType" : 5126,
            "count" : 861,
            "type" : "VEC3"
        },
        {
            "bufferView" : 13,
            "componentType" : 5123,
            "count" : 864,
            "type" : "SCALAR"
        },
        {
            "bufferView" : 14,
            "componentType" : 5126,
            "count" : 864,
            "max" : [
                1.4678025245666504,
                1.4678025245666504,
                0.010093657299876213
            ],
            "min" : [
                -1.46780264377594,
                -1.4678030014038086,
                -0.42865830659866333
            ],
            "type" : "VEC3"
        },
        {
            "bufferView" : 15,
            "componentType" : 5126,
            "count" : 864,
            "type" : "VEC2"
        },
        {
            "bufferView" : 16,
            "componentType" : 5126,
            "count" : 864,
            "type" : "VEC3"
        },
        {
            "bufferView" : 17,
            "componentType" : 5123,
            "count" : 864,
            "type" : "SCALAR"
        },
        {
            "bufferView" : 18,
            "componentType" : 5126,
            "count" : 256,
            "max" : [
                0.5405483245849609,
                0.5405486226081848,
                1.7314436435699463
            ],
            "min" : [
                -0.5405492782592773,
                -0.5405492782592773,
                -2.811163710703113e-07
            ],
            "type" : "VEC3"
        },
        {
            "bufferView" : 19,
            "componentType" : 5126,
            "count" : 256,
            "type" : "VEC2"
        },
        {
            "bufferView" : 20,
            "componentType" : 5126,
            "count" : 256,
            "type" : "VEC3"
        },
        {
            "bufferView" : 21,
            "componentType" : 5123,
            "count" : 384,
            "type" : "SCALAR"
        },
        {
            "bufferView" : 22,
            "componentType" : 5126,
            "count" : 85,
            "max" : [
                0.4176979064941406,
                0.4179830849170685,
                0.28118181228637695
            ],
            "min" : [
                -0.41769838333129883,
                -0.41798487305641174,
                0.15486811101436615
            ],
            "type" : "VEC3"
        },
        {
            "bufferView" : 23,
            "componentType" : 5126,
            "count" : 85,
            "type" : "VEC2"
        },
        {
            "bufferView" : 24,
            "componentType" : 5126,
            "count" : 85,
            "type" : "VEC3"
        },
        {
            "bufferView" : 25,
            "componentType" : 5123,
            "count" : 384,
            "type" : "SCALAR"
        },
        {
            "bufferView" : 26,
            "componentType" : 5126,
            "count" : 540,
            "max" : [
                2.6273560523986816,
                2.627357006072998,
                1.2385871410369873
            ],
            "min" : [
                -2.6273560523986816,
                -2.62735652923584,
                0.5172946453094482
            ],
            "type" : "VEC3"
        },
        {
            "bufferView" : 27,
            "componentType" : 5126,
            "count" : 540,
            "type" : "VEC2"
        },
        {
            "bufferView" : 28,
            "componentType" : 5126,
            "count" : 540,
            "type" : "VEC3"
        },
        {
            "bufferView" : 29,
            "componentType" : 5123,
            "count" : 2904,
            "type" : "SCALAR"
        }
    ],
    "bufferViews" : [
        {
            "buffer" : 0,
            "byteLength" : 29112,
            "byteOffset" : 0,
            "target" : 34962
        },
        {
            "buffer" : 0,
            "byteLength" : 19408,
            "byteOffset" : 29112,
            "target" : 34962
        },
        {
            "buffer" : 0,
            "byteLength" : 29112,
            "byteOffset" : 48520,
            "target" : 34962
        },
        {
            "buffer" : 0,
            "byteLength" : 26076,
            "byteOffset" : 77632,
            "target" : 34963
        },
        {
            "buffer" : 0,
            "byteLength" : 6096,
            "byteOffset" : 103708,
            "target" : 34962
        },
        {
            "buffer" : 0,
            "byteLength" : 6096,
            "byteOffset" : 109804,
            "target" : 34962
        },
        {
            "buffer" : 0,
            "byteLength" : 4092,
            "byteOffset" : 115900,
            "target" : 34963
        },
        {
            "buffer" : 0,
            "byteLength" : 28224,
            "byteOffset" : 119992,
            "target" : 34962
        },
        {
            "buffer" : 0,
            "byteLength" : 28224,
            "byteOffset" : 148216,
            "target" : 34962
        },
        {
            "buffer" : 0,
            "byteLength" : 26532,
            "byteOffset" : 176440,
            "target" : 34963
        },
        {
            "buffer" : 0,
            "byteLength" : 10332,
            "byteOffset" : 202972,
            "target" : 34962
        },
        {
            "buffer" : 0,
            "byteLength" : 6888,
            "byteOffset" : 213304,
            "target" : 34962
        },
        {
            "buffer" : 0,
            "byteLength" : 10332,
            "byteOffset" : 220192,
            "target" : 34962
        },
        {
            "buffer" : 0,
            "byteLength" : 1728,
            "byteOffset" : 230524,
            "target" : 34963
        },
        {
            "buffer" : 0,
            "byteLength" : 10368,
            "byteOffset" : 232252,
            "target" : 34962
        },
        {
            "buffer" : 0,
            "byteLength" : 6912,
            "byteOffset" : 242620,
            "target" : 34962
        },
        {
            "buffer" : 0,
            "byteLength" : 10368,
            "byteOffset" : 249532,
            "target" : 34962
        },
        {
            "buffer" : 0,
            "byteLength" : 1728,
            "byteOffset" : 259900,
            "target" : 34963
        },
        {
            "buffer" : 0,
            "byteLength" : 3072,
            "byteOffset" : 261628,
            "target" : 34962
        },
        {
            "buffer" : 0,
            "byteLength" : 2048,
            "byteOffset" : 264700,
            "target" : 34962
        },
        {
            "buffer" : 0,
            "byteLength" : 3072,
            "byteOffset" : 266748,
            "target" : 34962
        },
        {
            "buffer" : 0,
            "byteLength" : 768,
            "byteOffset" : 269820,
            "target" : 34963
        },
        {
            "buffer" : 0,
            "byteLength" : 1020,
            "byteOffset" : 270588,
            "target" : 34962
        },
        {
            "buffer" : 0,
            "byteLength" : 680,
            "byteOffset" : 271608,
            "target" : 34962
        },
        {
            "buffer" : 0,
            "byteLength" : 1020,
            "byteOffset" : 272288,
            "target" : 34962
        },
        {
            "buffer" : 0,
            "byteLength" : 768,
            "byteOffset" : 273308,
            "target" : 34963
        },
        {
            "buffer" : 0,
            "byteLength" : 6480,
            "byteOffset" : 274076,
            "target" : 34962
        },
        {
            "buffer" : 0,
            "byteLength" : 4320,
            "byteOffset" : 280556,
            "target" : 34962
        },
        {
            "buffer" : 0,
            "byteLength" : 6480,
            "byteOffset" : 284876,
            "target" : 34962
        },
        {
            "buffer" : 0,
            "byteLength" : 5808,
            "byteOffset" : 291356,
            "target" : 34963
        }
    ],
    "samplers" : [
        {
            "magFilter" : 9729,
            "minFilter" : 9987,
            "wrapS" : 33071,
            "wrapT" : 33071
        }
    ],
    "buffers" : [
        {
            "byteLength" : 297164,
            "uri" : "please.bin"
        }
    ]
}
